<?xml version="1.0" encoding="UTF-8" standalone="no"?>
<!DOCTYPE svg PUBLIC "-//W3C//DTD SVG 1.1//EN"
 "http://www.w3.org/Graphics/SVG/1.1/DTD/svg11.dtd">
<!-- Generated by graphviz version 2.30.1 (20130214.1330)
 -->
<!-- Title: G Pages: 1 -->
<svg width="403pt" height="298pt"
 viewBox="0.00 0.00 403.00 298.00" xmlns="http://www.w3.org/2000/svg" xmlns:xlink="http://www.w3.org/1999/xlink">
<g id="graph0" class="graph" transform="scale(1 1) rotate(0) translate(4 294)">
<title>G</title>
<polygon fill="white" stroke="white" points="-4,5 -4,-294 400,-294 400,5 -4,5"/>
<g id="clust2" class="cluster"><title>cluster2</title>
<polygon fill="lightgrey" stroke="lightgrey" points="-0.3696,0.440778 -0.3696,-114.559 261.63,-114.559 261.63,0.440778 -0.3696,0.440778"/>
</g>
<g id="clust1" class="cluster"><title>cluster1</title>
<polygon fill="lightgrey" stroke="lightgrey" points="12.3528,-125.084 12.3528,-275.084 243.353,-275.084 243.353,-125.084 12.3528,-125.084"/>
</g>
<!-- instance -->
<g id="INSTANCE" class="node"><title>instance</title>
<ellipse fill="darkslateblue" stroke="black" cx="291.577" cy="-178.568" rx="31.3996" ry="18"/>
<text text-anchor="middle" x="291.577" y="-176.068" font-family="Arial" font-size="10.00" fill="white">instance</text>
</g>
<!-- a0 -->
<g id="node14" class="node"><title>a0</title>
<ellipse fill="none" stroke="black" cx="282.857" cy="-271.508" rx="27" ry="18"/>
<text text-anchor="middle" x="282.857" y="-267.808" font-family="Times New Roman,serif" font-size="14.00">a0</text>
</g>
<!-- instance&#45;&gt;a0 -->
<g id="edge9" class="edge"><title>instance&#45;&gt;a0</title>
<path fill="none" stroke="black" d="M289.854,-196.93C288.616,-210.127 286.923,-228.167 285.513,-243.199"/>
<polygon fill="black" stroke="black" points="281.996,-243.217 284.546,-253.501 288.965,-243.871 281.996,-243.217"/>
</g>
<!-- a5 -->
<g id="node15" class="node"><title>a5</title>
<ellipse fill="none" stroke="black" cx="322.046" cy="-85.925" rx="27" ry="18"/>
<text text-anchor="middle" x="322.046" y="-82.225" font-family="Times New Roman,serif" font-size="14.00">a5</text>
</g>
<!-- instance&#45;&gt;a5 -->
<g id="edge10" class="edge"><title>instance&#45;&gt;a5</title>
<path fill="none" stroke="black" d="M297.452,-160.706C301.835,-147.377 307.907,-128.915 312.921,-113.67"/>
<polygon fill="black" stroke="black" points="316.39,-114.326 316.189,-103.733 309.74,-112.139 316.39,-114.326"/>
</g>
<!-- __0:cluster1 -->
<!-- instance&#45;&gt;__0:cluster1 -->
<g id="edge11" class="edge"><title>instance&#45;&gt;__0:cluster1</title>
<path fill="none" stroke="black" d="M260.782,-182.615C258.431,-182.924 255.987,-183.245 253.465,-183.577"/>
<polygon fill="black" stroke="black" points="252.837,-180.129 243.378,-184.902 253.749,-187.069 252.837,-180.129"/>
</g>
<!-- DUMMY_0 -->
<!-- DUMMY_1 -->
<!-- a00 -->
<g id="node5" class="node"><title>a00</title>
<ellipse fill="white" stroke="white" cx="208.556" cy="-190.139" rx="27" ry="18"/>
<text text-anchor="middle" x="208.556" y="-186.439" font-family="Times New Roman,serif" font-size="14.00">a00</text>
</g>
<!-- a10 -->
<g id="node6" class="node"><title>a10</title>
<ellipse fill="white" stroke="white" cx="164.288" cy="-248.625" rx="27" ry="18"/>
<text text-anchor="middle" x="164.288" y="-244.925" font-family="Times New Roman,serif" font-size="14.00">a10</text>
</g>
<!-- a00&#45;&gt;a10 -->
<g id="edge2" class="edge"><title>a00&#45;&gt;a10</title>
<path fill="none" stroke="black" d="M196.225,-206.43C192.004,-212.007 187.186,-218.372 182.596,-224.437"/>
<polygon fill="black" stroke="black" points="179.797,-222.335 176.553,-232.421 185.379,-226.559 179.797,-222.335"/>
</g>
<!-- a20 -->
<g id="node7" class="node"><title>a20</title>
<ellipse fill="white" stroke="white" cx="138.326" cy="-151.302" rx="27" ry="18"/>
<text text-anchor="middle" x="138.326" y="-147.602" font-family="Times New Roman,serif" font-size="14.00">a20</text>
</g>
<!-- a10&#45;&gt;a20 -->
<g id="edge3" class="edge"><title>a10&#45;&gt;a20</title>
<path fill="none" stroke="black" d="M159.526,-230.775C155.647,-216.232 150.104,-195.454 145.659,-178.79"/>
<polygon fill="black" stroke="black" points="149.017,-177.799 143.058,-169.039 142.254,-179.603 149.017,-177.799"/>
</g>
<!-- END_GROUP0 -->
<g id="node9" class="node"><title>END_GROUP0</title>
<ellipse fill="white" stroke="white" cx="89.4568" cy="-196.774" rx="69.5877" ry="18"/>
<text text-anchor="middle" x="89.4568" y="-193.074" font-family="Times New Roman,serif" font-size="14.00">END_GROUP0</text>
</g>
<!-- a20&#45;&gt;END_GROUP0 -->
<g id="END_GROUP0" class="edge"><title>a20&#45;&gt;END_GROUP0</title>
<path fill="none" stroke="black" d="M122.595,-165.94C120.45,-167.936 118.202,-170.027 115.93,-172.141"/>
<polygon fill="darkslateblue" stroke="black" points="113.168,-169.931 108.231,-179.305 117.936,-175.055 113.168,-169.931"/>
</g>
<!-- __1:cluster2 -->
<!-- a20&#45;&gt;__1:cluster2 -->
<g id="edge12" class="edge"><title>a20&#45;&gt;__1:cluster2</title>
<path fill="none" stroke="black" d="M136.842,-133.131C136.633,-130.573 136.409,-127.83 136.175,-124.958"/>
<polygon fill="black" stroke="black" points="139.646,-124.463 135.344,-114.781 132.669,-125.033 139.646,-124.463"/>
</g>
<!-- a21 -->
<g id="node10" class="node"><title>a21</title>
<ellipse fill="white" stroke="white" cx="34.689" cy="-26.5197" rx="27" ry="18"/>
<text text-anchor="middle" x="34.689" y="-22.8197" font-family="Times New Roman,serif" font-size="14.00">a21</text>
</g>
<!-- a31 -->
<g id="node11" class="node"><title>a31</title>
<ellipse fill="white" stroke="white" cx="73.5517" cy="-88.8639" rx="27" ry="18"/>
<text text-anchor="middle" x="73.5517" y="-85.1639" font-family="Times New Roman,serif" font-size="14.00">a31</text>
</g>
<!-- a21&#45;&gt;a31 -->
<g id="edge6" class="edge"><title>a21&#45;&gt;a31</title>
<path fill="none" stroke="black" d="M45.1035,-43.2268C48.937,-49.3765 53.372,-56.4913 57.5829,-63.2464"/>
<polygon fill="black" stroke="black" points="54.8483,-65.4759 63.1085,-72.1107 60.7887,-61.7729 54.8483,-65.4759"/>
</g>
<!-- a41 -->
<g id="node12" class="node"><title>a41</title>
<ellipse fill="white" stroke="white" cx="138.179" cy="-25.8415" rx="27" ry="18"/>
<text text-anchor="middle" x="138.179" y="-22.1415" font-family="Times New Roman,serif" font-size="14.00">a41</text>
</g>
<!-- a31&#45;&gt;a41 -->
<g id="edge7" class="edge"><title>a31&#45;&gt;a41</title>
<path fill="none" stroke="black" d="M88.8674,-73.9285C96.7199,-66.2709 106.445,-56.7876 115.177,-48.2718"/>
<polygon fill="black" stroke="black" points="117.808,-50.5949 122.524,-41.1075 112.921,-45.5834 117.808,-50.5949"/>
</g>
<!-- END_GROUP1 -->
<g id="node13" class="node"><title>END_GROUP1</title>
<ellipse fill="white" stroke="white" cx="184.112" cy="-75.1613" rx="69.5877" ry="18"/>
<text text-anchor="middle" x="184.112" y="-71.4613" font-family="Times New Roman,serif" font-size="14.00">END_GROUP1</text>
</g>
<!-- a41&#45;&gt;END_GROUP1 -->
<g id="END_GROUP1" class="edge"><title>a41&#45;&gt;END_GROUP1</title>
<path fill="none" stroke="black" d="M152.46,-41.1762C155.11,-44.0216 157.941,-47.0612 160.78,-50.1089"/>
<polygon fill="darkslateblue" stroke="black" points="158.375,-52.6625 167.752,-57.595 163.498,-47.8917 158.375,-52.6625"/>
</g>
<!-- END_PROCESS -->
<g id="END_PROCESS" class="node"><title>END_PROCESS</title>
<ellipse fill="darkslateblue" stroke="black" cx="342.145" cy="-18.2963" rx="52.9593" ry="18"/>
<text text-anchor="middle" x="342.145" y="-15.7963" font-family="Arial" font-size="10.00" fill="white">END_PROCESS</text>
</g>
</g>
</svg>
