<?xml version="1.0" encoding="UTF-8" standalone="no"?>
<!DOCTYPE svg PUBLIC "-//W3C//DTD SVG 1.1//EN"
 "http://www.w3.org/Graphics/SVG/1.1/DTD/svg11.dtd">
<!-- Generated by graphviz version 2.30.1 (20130214.1330)
 -->
<!-- Title: G Pages: 1 -->
<svg width="286pt" height="260pt"
 viewBox="0.00 0.00 286.02 260.00" xmlns="http://www.w3.org/2000/svg" xmlns:xlink="http://www.w3.org/1999/xlink">
<g id="graph0" class="graph" transform="scale(1 1) rotate(0) translate(4 256)">
<title>G</title>
<polygon fill="white" stroke="white" points="-4,5 -4,-256 283.025,-256 283.025,5 -4,5"/>
<!-- END_PROCESS -->
<g id="END_PROCESS" class="node"><title>END_PROCESS</title>
<ellipse fill="darkslateblue" stroke="black" cx="131.012" cy="-18" rx="52.4697" ry="18"/>
<text text-anchor="middle" x="131.012" y="-15.5" font-family="Arial" font-size="10.00">END_PROCESS</text>
</g>
<!-- Instance -->
<g id="0" class="node"><title>Instance</title>
<ellipse fill="none" stroke="black" cx="227.012" cy="-162" rx="31.2993" ry="18"/>
<text text-anchor="middle" x="227.012" y="-159.5" font-family="Arial" font-size="10.00">Instance</text>
</g>
<!-- investigate -->
<g id="4652" class="node"><title>investigate</title>
<polygon fill="none" stroke="black" points="157.012,-108 95.0118,-108 95.0118,-72 157.012,-72 157.012,-108"/>
<text text-anchor="middle" x="126.012" y="-87.5" font-family="Arial" font-size="10.00">investigate</text>
</g>
<!-- Instance&#45;&gt;investigate -->
<g id="edge1" class="edge"><title>Instance&#45;&gt;investigate</title>
<path fill="none" stroke="black" d="M207.538,-147.503C193.899,-138.05 175.329,-125.181 159.358,-114.111"/>
<polygon fill="black" stroke="black" points="161.013,-111 150.8,-108.18 157.025,-116.753 161.013,-111"/>
</g>
<!-- reproduce -->
<g id="0" class="node"><title>reproduce</title>
<polygon fill="none" stroke="black" points="99.2618,-252 40.7618,-252 40.7618,-216 99.2618,-216 99.2618,-252"/>
<text text-anchor="middle" x="70.0118" y="-231.5" font-family="Arial" font-size="10.00">reproduce</text>
</g>
<!-- fix -->
<g id="0" class="node"><title>fix</title>
<polygon fill="none" stroke="black" points="66.0118,-108 12.0118,-108 12.0118,-72 66.0118,-72 66.0118,-108"/>
<text text-anchor="middle" x="39.0118" y="-87.5" font-family="Arial" font-size="10.00">fix</text>
</g>
<!-- reproduce&#45;&gt;fix -->
<g id="edge5" class="edge"><title>reproduce&#45;&gt;fix</title>
<path fill="none" stroke="black" d="M61.6879,-215.871C53.8462,-191.67 43.8488,-147.211 39.533,-118.393"/>
<polygon fill="black" stroke="black" points="42.9636,-117.639 38.1734,-108.189 36.0249,-118.564 42.9636,-117.639"/>
</g>
<!-- escalate -->
<g id="0" class="node"><title>escalate</title>
<polygon fill="none" stroke="black" points="60.0118,-36 6.01176,-36 6.01176,-0 60.0118,-0 60.0118,-36"/>
<text text-anchor="middle" x="33.0118" y="-15.5" font-family="Arial" font-size="10.00">escalate</text>
</g>
<!-- reproduce&#45;&gt;escalate -->
<g id="edge9" class="edge"><title>reproduce&#45;&gt;escalate</title>
<path fill="none" stroke="black" d="M57.2854,-215.928C40.9616,-192.859 13.5057,-149.791 3.01176,-108 -0.884905,-92.4818 -1.06343,-87.4723 3.01176,-72 5.50361,-62.5392 10.1135,-52.9933 14.9847,-44.6599"/>
<polygon fill="black" stroke="black" points="17.9666,-46.4926 20.2852,-36.1546 12.0258,-42.7903 17.9666,-46.4926"/>
</g>
<!-- reproduce&#45;&gt;END_PROCESS -->
<g id="edge10" class="edge"><title>reproduce&#45;&gt;END_PROCESS</title>
<path fill="none" stroke="black" d="M99.6417,-229.415C149.493,-222.707 246.704,-206.493 267.012,-180 307.623,-127.019 221.273,-67.7814 168.3,-38.1146"/>
<polygon fill="black" stroke="black" points="169.923,-35.0128 159.473,-33.2696 166.555,-41.1494 169.923,-35.0128"/>
</g>
<!-- environment -->
<g id="0" class="node"><title>environment</title>
<polygon fill="none" stroke="black" points="140.012,-180 72.0118,-180 72.0118,-144 140.012,-144 140.012,-180"/>
<text text-anchor="middle" x="106.012" y="-159.5" font-family="Arial" font-size="10.00">environment</text>
</g>
<!-- reproduce&#45;&gt;environment -->
<g id="edge11" class="edge"><title>reproduce&#45;&gt;environment</title>
<path fill="none" stroke="red" d="M78.9106,-215.697C83.0086,-207.728 87.9606,-198.1 92.5045,-189.264"/>
<polygon fill="red" stroke="red" points="95.7542,-190.598 97.2152,-180.104 89.5292,-187.396 95.7542,-190.598"/>
</g>
<!-- environment&#45;&gt;investigate -->
<g id="edge3" class="edge"><title>environment&#45;&gt;investigate</title>
<path fill="none" stroke="red" d="M105.04,-143.697C106.479,-135.813 108.977,-126.304 111.855,-117.546"/>
<polygon fill="red" stroke="red" points="115.16,-118.699 115.23,-108.104 108.568,-116.343 115.16,-118.699"/>
</g>
<!-- fix&#45;&gt;escalate -->
<g id="edge6" class="edge"><title>fix&#45;&gt;escalate</title>
<path fill="none" stroke="black" d="M37.5286,-71.6966C36.8674,-63.9827 36.0728,-54.7125 35.3357,-46.1124"/>
<polygon fill="black" stroke="black" points="38.8192,-45.7689 34.4778,-36.1043 31.8447,-46.3667 38.8192,-45.7689"/>
</g>
<!-- fix&#45;&gt;END_PROCESS -->
<g id="edge7" class="edge"><title>fix&#45;&gt;END_PROCESS</title>
<path fill="none" stroke="black" d="M61.7533,-71.6966C73.9751,-62.3974 89.1696,-50.8364 102.21,-40.9145"/>
<polygon fill="black" stroke="black" points="104.576,-43.5119 110.415,-34.6712 100.338,-37.9411 104.576,-43.5119"/>
</g>
<!-- fix&#45;&gt;reproduce -->
<g id="edge8" class="edge"><title>fix&#45;&gt;reproduce</title>
<path fill="none" stroke="red" d="M47.3552,-108.189C55.2006,-132.424 65.1951,-176.888 69.5013,-205.679"/>
<polygon fill="red" stroke="red" points="66.069,-206.42 70.8569,-215.871 73.0079,-205.497 66.069,-206.42"/>
</g>
<!-- investigate&#45;&gt;environment -->
<g id="edge2" class="edge"><title>investigate&#45;&gt;environment</title>
<path fill="none" stroke="black" d="M127.02,-108.104C125.599,-115.96 123.113,-125.462 120.241,-134.232"/>
<polygon fill="black" stroke="black" points="116.928,-133.102 116.871,-143.697 123.523,-135.45 116.928,-133.102"/>
</g>
<!-- investigate&#45;&gt;reproduce -->
<g id="edge4" class="edge"><title>investigate&#45;&gt;reproduce</title>
<path fill="none" stroke="black" d="M137.56,-108.274C148.425,-126.876 161.328,-156.906 149.012,-180 140.306,-196.324 124.094,-208.51 108.61,-217.054"/>
<polygon fill="black" stroke="black" points="106.933,-213.981 99.6408,-221.667 110.134,-220.206 106.933,-213.981"/>
</g>
<!-- investigate&#45;&gt;escalate -->
<g id="edge12" class="edge"><title>investigate&#45;&gt;escalate</title>
<path fill="none" stroke="black" d="M103.023,-71.6966C91.1978,-62.796 76.6198,-51.8232 63.8331,-42.1989"/>
<polygon fill="black" stroke="black" points="65.8306,-39.3217 55.7361,-36.1043 61.621,-44.9145 65.8306,-39.3217"/>
</g>
<!-- investigate&#45;&gt;END_PROCESS -->
<g id="edge13" class="edge"><title>investigate&#45;&gt;END_PROCESS</title>
<path fill="none" stroke="black" d="M127.248,-71.6966C127.799,-63.9827 128.461,-54.7125 129.075,-46.1124"/>
<polygon fill="black" stroke="black" points="132.569,-46.3283 129.79,-36.1043 125.586,-45.8295 132.569,-46.3283"/>
</g>
</g>
</svg>
